<svg width="166" height="28" viewBox="0 0 166 28" fill="none" xmlns="http://www.w3.org/2000/svg">
<path d="M24.7492 2.4951C25.347 1.87329 26.1587 1.52396 27.004 1.52396C30.8071 1.52396 34.3911 1.52396 37.9205 1.52397C45.0192 1.52398 48.5739 10.4526 43.5544 15.6744L32.6206 27.0489C32.1187 27.5711 31.2604 27.2012 31.2604 26.4627V16.4445L32.524 15.13C33.5279 14.0856 32.8169 12.2999 31.3971 12.2999H15.3243L24.7492 2.4951Z" fill="#F59E0B"/>
<path d="M21.8356 26.2498C21.2379 26.8717 20.4262 27.221 19.5809 27.221C15.7778 27.221 12.1938 27.221 8.6644 27.221C1.56565 27.2209 -1.98906 18.2924 3.03049 13.0705L13.9643 1.69603C14.4662 1.17384 15.3245 1.54367 15.3245 2.28216L15.3243 12.2999L14.0609 13.6149C13.057 14.6593 13.768 16.445 15.1878 16.445L31.2604 16.4445L21.8356 26.2498Z" fill="#F59E0B"/>
<path fill-rule="evenodd" clip-rule="evenodd" d="M58.0282 2.59473V27.8312H51.2885V2.59473H58.0282Z" fill="#F59E0B"/>
<path fill-rule="evenodd" clip-rule="evenodd" d="M61.3981 2.59473H75.7199C80.3727 2.59473 84.1445 6.36098 84.1445 11.0069C84.1445 15.6528 80.3727 19.419 75.7199 19.419H68.1378V27.8312H61.3981V2.59473ZM68.1378 12.6893H75.7199C76.6505 12.6893 77.4049 11.9361 77.4049 11.0069C77.4049 10.0777 76.6505 9.32445 75.7199 9.32445H68.1378V12.6893Z" fill="#F59E0B"/>
<path fill-rule="evenodd" clip-rule="evenodd" d="M109.418 2.59473V15.6336C109.418 18.6534 111.87 21.1015 114.894 21.1015C117.918 21.1015 120.37 18.6534 120.37 15.6336V2.59473H127.11V15.6336C127.11 22.3702 121.641 27.8312 114.894 27.8312C108.148 27.8312 102.678 22.3702 102.678 15.6336V2.59473H109.418Z" fill="#F59E0B"/>
<path fill-rule="evenodd" clip-rule="evenodd" d="M86.6719 14.3717C86.6719 7.86746 91.9525 2.59473 98.4664 2.59473H100.151V9.32445H98.4664C95.6747 9.32445 93.4116 11.5842 93.4116 14.3717V15.213C93.4116 22.1818 87.7539 27.8312 80.7747 27.8312H79.9323V21.1015H80.7747C84.0317 21.1015 86.6719 18.4651 86.6719 15.213V14.3717Z" fill="#F59E0B"/>
<path d="M165.021 3.43673C165.021 4.8305 163.89 5.96038 162.493 5.96038C161.098 5.96038 159.966 4.8305 159.966 3.43673C159.966 2.04296 161.098 0.913086 162.493 0.913086C163.89 0.913086 165.021 2.04296 165.021 3.43673Z" fill="#F59E0B"/>
<path d="M134.347 27.8317L137.563 14.3844L139.954 22.4744C141.379 27.2994 148.224 27.2994 149.65 22.4744L152.04 14.3844L155.257 27.8317H162.185L157.129 6.68656C155.926 1.65807 148.83 1.47189 147.364 6.43044L144.802 15.1013L142.239 6.43044C140.774 1.47192 133.677 1.65805 132.474 6.68655L127.418 27.8317H134.347Z" fill="#F59E0B"/>
</svg>
